<svg xmlns="http://www.w3.org/2000/svg" xmlns:xlink="http://www.w3.org/1999/xlink" viewBox="0 0 750 500"><defs><style>.cls-1{isolation:isolate;}.cls-2{fill:#a8cfe6;}.cls-11,.cls-14,.cls-3,.cls-5,.cls-6,.cls-8{fill:none;}.cls-3,.cls-5,.cls-6{stroke:#a8cfe6;stroke-miterlimit:10;}.cls-3{stroke-width:1.32px;}.cls-4{fill:#6ba5c9;}.cls-5{stroke-width:1.37px;}.cls-6{stroke-width:1.66px;}.cls-7{fill:#d99789;}.cls-11,.cls-8{stroke:#000;}.cls-11,.cls-14,.cls-8{stroke-linecap:round;stroke-linejoin:round;}.cls-8{stroke-width:1.3px;}.cls-9{fill:#ebb3a2;}.cls-10{fill:#2a2a2a;}.cls-11{stroke-width:3.47px;}.cls-12{mix-blend-mode:overlay;opacity:0.59;fill:url(#Nueva_muestra_de_degradado_3);}.cls-13{fill:#344456;}.cls-14{stroke:#2a2a2a;stroke-width:3px;}</style><linearGradient id="Nueva_muestra_de_degradado_3" x1="191.93" y1="423.37" x2="378.07" y2="307.39" gradientUnits="userSpaceOnUse"><stop offset="0" stop-color="#a8cfe6"/><stop offset="1" stop-color="#a8cfe6" stop-opacity="0"/></linearGradient></defs><g class="cls-1"><g id="OBJECTS"><path class="cls-2" d="M281.06,152.06a4.92,4.92,0,1,0-4.09,5.63A4.91,4.91,0,0,0,281.06,152.06Z"/><path class="cls-3" d="M86.68,69.52a4.93,4.93,0,1,0-4.1,5.64A4.94,4.94,0,0,0,86.68,69.52Z"/><path class="cls-2" d="M95,277.39a5.9,5.9,0,1,0-4.91,6.75A5.9,5.9,0,0,0,95,277.39Z"/><path class="cls-3" d="M64.62,365.36a9,9,0,1,0,4.49,11.9A9,9,0,0,0,64.62,365.36Z"/><path class="cls-3" d="M600.16,52.9a9,9,0,1,0,4.48,11.9A9,9,0,0,0,600.16,52.9Z"/><path class="cls-4" d="M383.25,117a10.25,10.25,0,1,0-6,13.2A10.26,10.26,0,0,0,383.25,117Z"/><path class="cls-2" d="M612,385.12a6.86,6.86,0,1,0,9.28-2.84A6.87,6.87,0,0,0,612,385.12Z"/><path class="cls-4" d="M296.43,65.63H212.92a3.34,3.34,0,0,1-3.34-3.34h0A3.33,3.33,0,0,1,212.92,59h83.51a3.33,3.33,0,0,1,3.34,3.34h0A3.34,3.34,0,0,1,296.43,65.63Z"/><path class="cls-4" d="M693,344H642.84a3.35,3.35,0,0,1-3.34-3.34h0a3.34,3.34,0,0,1,3.34-3.34H693a3.34,3.34,0,0,1,3.34,3.34h0A3.35,3.35,0,0,1,693,344Z"/><line class="cls-3" x1="579.93" y1="132.24" x2="660.85" y2="132.24"/><line class="cls-3" x1="41.44" y1="233.08" x2="123.19" y2="233.08"/><path class="cls-5" d="M565.84,379s-63.29,102.84-315.37,8.79C62.75,317.76,165.6,151.39,265.83,210.35s198.5,2.27,198.5,2.27,75.19-31.9,115.13,23.66C579.46,236.28,625.71,312.69,565.84,379Z"/><path class="cls-4" d="M100.67,109.08h88.23a0,0,0,0,1,0,0v83.49a0,0,0,0,1,0,0H103.53a2.87,2.87,0,0,1-2.87-2.87V109.08A0,0,0,0,1,100.67,109.08Z"/><polygon class="cls-2" points="131.19 148.94 153.68 141.01 144.59 162.64 141.74 151.82 131.19 148.94"/><rect class="cls-6" x="123.99" y="130.04" width="41.16" height="41.16"/><rect class="cls-2" x="120.19" y="126.24" width="8.43" height="8.43"/><rect class="cls-2" x="160.94" y="126.24" width="8.43" height="8.43"/><rect class="cls-2" x="120.19" y="166.98" width="8.43" height="8.43"/><rect class="cls-2" x="160.94" y="166.98" width="8.43" height="8.43"/><path class="cls-4" d="M558.55,224.48H638a0,0,0,0,1,0,0V299.7a0,0,0,0,1,0,0H561.14a2.58,2.58,0,0,1-2.58-2.58V224.48A0,0,0,0,1,558.55,224.48Z"/><path class="cls-2" d="M613.67,242.86v12.47h-.11l-4.76-10.44a2.22,2.22,0,0,0-.52-.85,1.52,1.52,0,0,0-.9-.19h-6.24v33.68a1.57,1.57,0,0,0,.11.69,1.37,1.37,0,0,0,.6.41l5,2.57v.11H589.77v-.11l5-2.57a1.19,1.19,0,0,0,.71-1.1V243.85h-6.23a1.55,1.55,0,0,0-.87.16,2.49,2.49,0,0,0-.55.88L583,255.33h-.11V242.86Z"/><circle class="cls-2" cx="499.64" cy="121.55" r="39.27"/><path class="cls-4" d="M506.23,101.16l-26.76,26.77v9.65h35.68V134H492.69l23.2-23.19Zm4.62,9.66L508,113.65,503.4,109l2.83-2.84ZM483,134v-4.62l17.84-17.84,4.62,4.62L487.66,134Z"/><polygon class="cls-7" points="340.9 317.12 328.39 385.9 256.93 406.4 266.41 422.48 363.08 422.48 359.08 347.31 340.9 317.12"/><path class="cls-2" d="M355.44,282.67s-21.73,7-32.31,68.78L358.68,359Z"/><path class="cls-2" d="M481,286.44a341.63,341.63,0,0,0-61.79-16.2s-33.43.75-34.09,1-29.7,11.4-29.7,11.4-17,24.3-2.41,141.72H469.59L459,313.11l22.89-22.56A2.49,2.49,0,0,0,481,286.44Z"/><path class="cls-8" d="M347.12,356.54s-1.33-23.31,0-37.71"/><path class="cls-9" d="M480.67,388,377.4,393.59V413.9s59.38,14,111,10.27Z"/><path class="cls-9" d="M377.4,393.59s-26-13.6-41.73-1.52a120.44,120.44,0,0,0-21.48,21.83h75.9Z"/><path class="cls-9" d="M451.62,343.29l13.93,63c1.67,10.31,12.43,17.88,22.87,17.88h0a21.3,21.3,0,0,0,20.9-25.35l-11.51-59.23Z"/><path class="cls-2" d="M439.72,321.14,446.28,359l59.05-2S499,291.42,481,286.44Z"/><polyline class="cls-8" points="455.09 358.99 446.28 358.99 439.72 321.14"/><polyline class="cls-8" points="455.09 358.99 446.28 358.99 439.72 321.14"/><circle class="cls-7" cx="363.08" cy="217.07" r="11.69" transform="translate(-47.15 320.32) rotate(-45)"/><ellipse class="cls-10" cx="393.92" cy="199.01" rx="38.47" ry="35.77"/><polygon class="cls-9" points="384 241.86 385.45 283.09 421.75 280.14 418.69 220.31 384 241.86"/><path class="cls-7" d="M384.84,265.48s26.3-1.44,28.29-33.59L384.23,246Z"/><path class="cls-9" d="M363.85,186.51a4.74,4.74,0,0,0-4.3,3.07c-2,5.28-5.09,17.47-1.22,35.78,4.7,22.29,10.31,32.44,34.35,27.38,8.48-1.78,16.23-9.82,21.54-16.68,2.89-3.73,5.15-4.69,5-9.31-.72-22.44-3.46-41.89-3.46-41.89Z"/><path class="cls-10" d="M412,218.09s-8.19,2.74-6.48-7.29,3.27-22.56-6.07-22.07-28.54,9.48-40.72-1.76c0,0-.19-12.38,44.1-10.92S412,218.09,412,218.09Z"/><circle class="cls-9" cx="423.79" cy="218.09" r="11.84" transform="translate(114.6 580.81) rotate(-76.79)"/><path class="cls-8" d="M429,214.47s-8.3-2.21-9.75,8.12"/><path class="cls-10" d="M359.08,228.76s14.15-7.31,34.84,2c9,4,11.55-20,11.55-20l7.66.71s4.73,15.36,1.09,24.55c-4.55,11.47-15.05,21.55-36.51,18C358.68,250.83,359.08,228.76,359.08,228.76Z"/><path class="cls-8" d="M370,216.6l-.78,3.88A2.15,2.15,0,0,0,371,223l2.55.31"/><circle cx="385.81" cy="212.33" r="2.68"/><path d="M365.64,212.33a2.56,2.56,0,1,1-2.56-2.56A2.55,2.55,0,0,1,365.64,212.33Z"/><line class="cls-11" x1="379.84" y1="200.44" x2="392.19" y2="200.44"/><line class="cls-11" x1="360.18" y1="200.44" x2="366.36" y2="200.44"/><path class="cls-2" d="M368.24,231.6H382s-.29,3.83-6.88,3.83C369.63,235.43,368.24,231.6,368.24,231.6Z"/><path class="cls-9" d="M419.23,270.24l16.4,3S425.16,294,392.48,292.77c-25.67-1-16.84-17.77-16.84-17.77l9.5-3.73Z"/><polygon class="cls-12" points="107.27 321.21 342.41 155.6 469.59 424.38 285.35 417.05 107.27 321.21"/><path class="cls-13" d="M279.3,412.78H366a9.7,9.7,0,0,1,9.7,9.7H279.3Z"/><path class="cls-13" d="M287.25,422.48H139.36l-24.45-90.16a9.24,9.24,0,0,1,8.92-11.67H252.55a9.25,9.25,0,0,1,8.93,6.83Z"/><path class="cls-4" d="M279.3,422.48H126l-24.45-90.16a9.24,9.24,0,0,1,8.92-11.67H244.61a9.26,9.26,0,0,1,8.93,6.83Z"/><circle class="cls-2" cx="184.14" cy="373.11" r="10.75" transform="translate(-128.03 98.02) rotate(-22.35)"/><line class="cls-14" x1="658.5" y1="424.39" x2="65.57" y2="424.39"/></g></g></svg>